# xmcd
#
# Track frame offsets:
#	182
#	20645
#	29697
#	65970
#	75027
#	85982
#	121597
#	132267
#	156405
#
# Disc length: 2276 seconds
#
# Revision: 1
# Processed by: cddbd v1.4PL0 Copyright (c) Steve Scherf et al.
# Submitted via: audiograbber 1.80
#
DISCID=7008e209
DTITLE=Kevrenn Brest Saint Mark - TU pe DU
DYEAR=1900
DGENRE=
TTITLE0=Tu Pe Du
TTITLE1=Ar Chas Donv Yelo Da Ouez
TTITLE2=Suite Ecossaise
TTITLE3=Marche De Cornouaille
TTITLE4=Edmond's III
TTITLE5=The Little Bighorn - Marche Amere
TTITLE6=Edmond's II
TTITLE7=Suite Irlandaise
TTITLE8=Heloise Et Abelard
EXTD=
EXTT0=
EXTT1=
EXTT2=
EXTT3=
EXTT4=
EXTT5=
EXTT6=
EXTT7=
EXTT8=
PLAYORDER=
